<svg width="512" height="512" viewBox="0 0 512 512" fill="none" xmlns="http://www.w3.org/2000/svg">
<rect width="512" height="512" fill="white"/>
<path d="M111.82 380.986L94.0524 370.745L109.139 344.568L156.118 263.18C161.968 253.063 170.706 247.268 180.092 247.268H180.11C189.496 247.276 198.223 253.079 204.047 263.186C204.084 263.247 205.505 265.709 207.371 268.938C219.369 248.155 238.048 215.783 238.048 215.783C243.914 205.662 252.654 199.871 262.035 199.871H262.062C271.445 199.881 280.166 205.681 285.995 215.783L343.244 314.947C343.391 314.69 343.535 314.437 343.674 314.186L343.738 314.076C348.485 305.892 355.687 301.195 363.492 301.187H363.508C371.314 301.187 378.524 305.878 383.29 314.06C388.978 323.975 398.906 341.182 405.088 351.797L405.125 351.861L415.953 370.769L398.158 380.961L387.346 362.085C381.143 351.433 371.199 334.197 365.535 324.325C364.659 322.821 363.909 322.132 363.511 321.841C363.119 322.132 362.382 322.821 361.503 324.322C359.594 327.708 357.276 331.727 354.822 335.98L352.478 340.05C350.584 343.334 347.057 345.372 343.27 345.375C343.268 345.375 343.268 345.375 343.265 345.375C339.481 345.375 335.954 343.34 334.061 340.063L268.233 226.034C265.827 221.863 263.391 220.381 262.04 220.381C262.038 220.381 262.038 220.381 262.038 220.381C260.676 220.381 258.227 221.866 255.8 226.053C255.802 226.047 223.564 281.923 216.584 293.996C214.691 297.261 211.179 299.293 207.414 299.304C207.403 299.304 207.395 299.304 207.385 299.304C203.63 299.304 200.119 297.293 198.218 294.049C195.999 290.262 186.679 274.121 186.281 273.434C183.878 269.261 181.446 267.779 180.094 267.779H180.092C178.735 267.779 176.292 269.261 173.875 273.442L126.905 354.814L111.82 380.986Z" fill="#BFB3AF"/>
<path d="M420.746 386.318H91.2539C85.5902 386.318 81 381.725 81 376.064C81 370.401 85.5902 365.808 91.2539 365.808H420.746C426.41 365.808 431 370.401 431 376.064C431 381.725 426.41 386.318 420.746 386.318Z" fill="#B4D241"/>
<path d="M166.26 209.339C143.316 209.339 124.648 190.671 124.648 167.728C124.648 144.783 143.316 126.117 166.26 126.117C189.205 126.117 207.871 144.785 207.871 167.728C207.871 190.671 189.205 209.339 166.26 209.339ZM166.26 146.625C154.625 146.625 145.159 156.091 145.159 167.728C145.159 179.363 154.625 188.829 166.26 188.829C177.897 188.829 187.363 179.363 187.363 167.728C187.363 156.091 177.897 146.625 166.26 146.625Z" fill="#FFD15E"/>
</svg>
